<svg width="37" height="37" viewBox="0 0 37 37" fill="none" xmlns="http://www.w3.org/2000/svg">
<path d="M14.9857 22.0143L36 1M14.9857 22.0143L21.6721 35.387C21.7559 35.5699 21.8905 35.7249 22.0598 35.8336C22.2291 35.9422 22.4261 36 22.6273 36C22.8285 36 23.0254 35.9422 23.1948 35.8336C23.3641 35.7249 23.4987 35.5699 23.5825 35.387L36 1M14.9857 22.0143L1.61299 15.3279C1.43009 15.2441 1.27509 15.1095 1.16643 14.9402C1.05776 14.7709 1 14.5739 1 14.3727C1 14.1715 1.05776 13.9746 1.16643 13.8052C1.27509 13.6359 1.43009 13.5013 1.61299 13.4175L36 1" stroke="#48351C" stroke-width="2" stroke-linecap="round" stroke-linejoin="round"/>
</svg>
