<svg width="36" height="36" viewBox="0 0 36 36" fill="none" xmlns="http://www.w3.org/2000/svg">
<path fill-rule="evenodd" clip-rule="evenodd" d="M5.65714 3.08571C4.23771 3.08571 3.08571 4.23771 3.08571 5.65714V11.8286C3.08571 12.2378 2.92316 12.6302 2.63382 12.9195C2.34448 13.2089 1.95205 13.3714 1.54286 13.3714C1.13367 13.3714 0.741234 13.2089 0.451892 12.9195C0.16255 12.6302 0 12.2378 0 11.8286V5.65714C0 4.15678 0.596018 2.71786 1.65694 1.65694C2.71786 0.596018 4.15678 0 5.65714 0H11.8286C12.2378 0 12.6302 0.16255 12.9195 0.451892C13.2089 0.741234 13.3714 1.13367 13.3714 1.54286C13.3714 1.95205 13.2089 2.34448 12.9195 2.63382C12.6302 2.92316 12.2378 3.08571 11.8286 3.08571H5.65714ZM22.6286 1.54286C22.6286 1.13367 22.7911 0.741234 23.0805 0.451892C23.3698 0.16255 23.7622 0 24.1714 0H30.3429C31.8432 0 33.2821 0.596018 34.3431 1.65694C35.404 2.71786 36 4.15678 36 5.65714V11.8286C36 12.2378 35.8375 12.6302 35.5481 12.9195C35.2588 13.2089 34.8663 13.3714 34.4571 13.3714C34.048 13.3714 33.6555 13.2089 33.3662 12.9195C33.0768 12.6302 32.9143 12.2378 32.9143 11.8286V5.65714C32.9143 4.23771 31.7623 3.08571 30.3429 3.08571H24.1714C23.7622 3.08571 23.3698 2.92316 23.0805 2.63382C22.7911 2.34448 22.6286 1.95205 22.6286 1.54286ZM1.54286 22.6286C1.95205 22.6286 2.34448 22.7911 2.63382 23.0805C2.92316 23.3698 3.08571 23.7622 3.08571 24.1714V30.3429C3.08571 31.7623 4.23771 32.9143 5.65714 32.9143H11.8286C12.2378 32.9143 12.6302 33.0768 12.9195 33.3662C13.2089 33.6555 13.3714 34.048 13.3714 34.4571C13.3714 34.8663 13.2089 35.2588 12.9195 35.5481C12.6302 35.8375 12.2378 36 11.8286 36H5.65714C4.15678 36 2.71786 35.404 1.65694 34.3431C0.596018 33.2821 0 31.8432 0 30.3429V24.1714C0 23.7622 0.16255 23.3698 0.451892 23.0805C0.741234 22.7911 1.13367 22.6286 1.54286 22.6286ZM34.4571 22.6286C34.8663 22.6286 35.2588 22.7911 35.5481 23.0805C35.8375 23.3698 36 23.7622 36 24.1714V30.3429C36 31.8432 35.404 33.2821 34.3431 34.3431C33.2821 35.404 31.8432 36 30.3429 36H24.1714C23.7622 36 23.3698 35.8375 23.0805 35.5481C22.7911 35.2588 22.6286 34.8663 22.6286 34.4571C22.6286 34.048 22.7911 33.6555 23.0805 33.3662C23.3698 33.0768 23.7622 32.9143 24.1714 32.9143H30.3429C31.7623 32.9143 32.9143 31.7623 32.9143 30.3429V24.1714C32.9143 23.7622 33.0768 23.3698 33.3662 23.0805C33.6555 22.7911 34.048 22.6286 34.4571 22.6286Z" fill="#48351C"/>
</svg>
