<svg width="40" height="36" viewBox="0 0 40 36" fill="none" xmlns="http://www.w3.org/2000/svg">
<path d="M36 4H30L26 0H14L10 4H4C2.93913 4 1.92172 4.42143 1.17157 5.17157C0.421427 5.92172 0 6.93913 0 8V32C0 33.0609 0.421427 34.0783 1.17157 34.8284C1.92172 35.5786 2.93913 36 4 36H36C37.0609 36 38.0783 35.5786 38.8284 34.8284C39.5786 34.0783 40 33.0609 40 32V8C40 6.93913 39.5786 5.92172 38.8284 5.17157C38.0783 4.42143 37.0609 4 36 4ZM20 30C17.84 30 15.72 29.3 14 28L16.88 25.12C17.82 25.7 18.9 26 20 26C21.5913 26 23.1174 25.3679 24.2426 24.2426C25.3679 23.1174 26 21.5913 26 20C26 18.4087 25.3679 16.8826 24.2426 15.7574C23.1174 14.6321 21.5913 14 20 14C17.48 14 15.2 15.6 14.36 18H18L12 24L6 18H10.2C10.4617 16.7125 10.9746 15.4893 11.7095 14.4003C12.4444 13.3113 13.3868 12.3778 14.4827 11.6534C15.5787 10.9289 16.8068 10.4276 18.0967 10.1783C19.3866 9.92888 20.713 9.93627 22 10.2C24.4303 10.6935 26.5906 12.0724 28.0614 14.0691C29.5322 16.0657 30.2087 18.5376 29.9594 21.005C29.7102 23.4723 28.5531 25.7591 26.7127 27.4213C24.8723 29.0834 22.4799 30.0025 20 30Z" fill="black"/>
</svg>
