<svg width="34" height="34" viewBox="0 0 34 34" fill="none" xmlns="http://www.w3.org/2000/svg">
<path d="M17 0C17.7956 0 18.5587 0.316071 19.1213 0.87868C19.6839 1.44129 20 2.20435 20 3V14H31C31.7956 14 32.5587 14.3161 33.1213 14.8787C33.6839 15.4413 34 16.2044 34 17C34 17.7956 33.6839 18.5587 33.1213 19.1213C32.5587 19.6839 31.7956 20 31 20H20V31C20 31.7956 19.6839 32.5587 19.1213 33.1213C18.5587 33.6839 17.7956 34 17 34C16.2044 34 15.4413 33.6839 14.8787 33.1213C14.3161 32.5587 14 31.7956 14 31V20H3C2.20435 20 1.44129 19.6839 0.87868 19.1213C0.316071 18.5587 0 17.7956 0 17C0 16.2044 0.316071 15.4413 0.87868 14.8787C1.44129 14.3161 2.20435 14 3 14H14V3C14 2.20435 14.3161 1.44129 14.8787 0.87868C15.4413 0.316071 16.2044 0 17 0Z" fill="#48351C"/>
</svg>
